<svg width="566" height="351" viewBox="0 0 566 351" fill="none" xmlns="http://www.w3.org/2000/svg">
<rect width="566" height="351" rx="20" fill="#D9D9D9"/>
<path d="M238.938 157.162C239.717 157.162 240.464 157.472 241.015 158.023C241.566 158.574 241.875 159.321 241.875 160.1V174.787C241.875 176.346 242.494 177.84 243.596 178.942C244.698 180.044 246.192 180.662 247.75 180.662H318.25C319.808 180.662 321.302 180.044 322.404 178.942C323.506 177.84 324.125 176.346 324.125 174.787V160.1C324.125 159.321 324.434 158.574 324.985 158.023C325.536 157.472 326.283 157.162 327.062 157.162C327.842 157.162 328.589 157.472 329.14 158.023C329.691 158.574 330 159.321 330 160.1V174.787C330 177.904 328.762 180.892 326.559 183.096C324.355 185.3 321.366 186.537 318.25 186.537H247.75C244.634 186.537 241.645 185.3 239.441 183.096C237.238 180.892 236 177.904 236 174.787V160.1C236 159.321 236.309 158.574 236.86 158.023C237.411 157.472 238.158 157.162 238.938 157.162Z" fill="white"/>
<path d="M280.92 105.733C281.193 105.459 281.517 105.242 281.874 105.094C282.231 104.946 282.614 104.87 283 104.87C283.386 104.87 283.769 104.946 284.126 105.094C284.483 105.242 284.807 105.459 285.08 105.733L302.705 123.358C303.256 123.909 303.566 124.657 303.566 125.438C303.566 126.218 303.256 126.966 302.705 127.517C302.153 128.069 301.405 128.379 300.625 128.379C299.845 128.379 299.097 128.069 298.545 127.517L285.937 114.904V166.562C285.937 167.342 285.628 168.089 285.077 168.64C284.526 169.191 283.779 169.5 283 169.5C282.221 169.5 281.474 169.191 280.923 168.64C280.372 168.089 280.062 167.342 280.062 166.562V114.904L267.455 127.517C267.182 127.79 266.857 128.007 266.501 128.155C266.144 128.303 265.761 128.379 265.375 128.379C264.989 128.379 264.606 128.303 264.249 128.155C263.893 128.007 263.568 127.79 263.295 127.517C263.022 127.244 262.805 126.92 262.658 126.563C262.51 126.206 262.434 125.824 262.434 125.438C262.434 125.051 262.51 124.669 262.658 124.312C262.805 123.955 263.022 123.631 263.295 123.358L280.92 105.733Z" fill="white"/>
<path d="M225.375 213.578V220.969C225.375 221.812 225.193 222.552 224.828 223.188C224.469 223.818 223.945 224.305 223.258 224.648C222.576 224.987 221.758 225.156 220.805 225.156C219.388 225.156 218.286 224.781 217.5 224.031C216.714 223.281 216.32 222.25 216.32 220.938V213.578H218.195V220.805C218.195 221.747 218.414 222.443 218.852 222.891C219.289 223.339 219.961 223.562 220.867 223.562C222.628 223.562 223.508 222.638 223.508 220.789V213.578H225.375ZM232.484 225.156C231.391 225.156 230.542 224.763 229.938 223.977H229.828C229.901 224.706 229.938 225.148 229.938 225.305V228.844H228.102V216.359H229.586C229.628 216.521 229.714 216.906 229.844 217.516H229.938C230.51 216.641 231.37 216.203 232.516 216.203C233.594 216.203 234.432 216.594 235.031 217.375C235.635 218.156 235.938 219.253 235.938 220.664C235.938 222.076 235.63 223.177 235.016 223.969C234.406 224.76 233.562 225.156 232.484 225.156ZM232.039 217.703C231.31 217.703 230.776 217.917 230.438 218.344C230.104 218.771 229.938 219.453 229.938 220.391V220.664C229.938 221.716 230.104 222.479 230.438 222.953C230.771 223.422 231.315 223.656 232.07 223.656C232.706 223.656 233.195 223.396 233.539 222.875C233.883 222.354 234.055 221.612 234.055 220.648C234.055 219.68 233.883 218.948 233.539 218.453C233.201 217.953 232.701 217.703 232.039 217.703ZM239.906 225H238.07V212.844H239.906V225ZM250.203 220.664C250.203 222.076 249.841 223.177 249.117 223.969C248.393 224.76 247.385 225.156 246.094 225.156C245.286 225.156 244.573 224.974 243.953 224.609C243.333 224.245 242.857 223.721 242.523 223.039C242.19 222.357 242.023 221.565 242.023 220.664C242.023 219.263 242.383 218.169 243.102 217.383C243.82 216.596 244.833 216.203 246.141 216.203C247.391 216.203 248.38 216.607 249.109 217.414C249.839 218.216 250.203 219.299 250.203 220.664ZM243.914 220.664C243.914 222.659 244.651 223.656 246.125 223.656C247.583 223.656 248.312 222.659 248.312 220.664C248.312 218.69 247.578 217.703 246.109 217.703C245.339 217.703 244.779 217.958 244.43 218.469C244.086 218.979 243.914 219.711 243.914 220.664ZM257.727 225L257.359 223.797H257.297C256.88 224.323 256.461 224.682 256.039 224.875C255.617 225.062 255.076 225.156 254.414 225.156C253.565 225.156 252.901 224.927 252.422 224.469C251.948 224.01 251.711 223.362 251.711 222.523C251.711 221.633 252.042 220.961 252.703 220.508C253.365 220.055 254.372 219.807 255.727 219.766L257.219 219.719V219.258C257.219 218.706 257.089 218.294 256.828 218.023C256.573 217.747 256.174 217.609 255.633 217.609C255.19 217.609 254.766 217.674 254.359 217.805C253.953 217.935 253.562 218.089 253.188 218.266L252.594 216.953C253.062 216.708 253.576 216.523 254.133 216.398C254.69 216.268 255.216 216.203 255.711 216.203C256.81 216.203 257.638 216.443 258.195 216.922C258.758 217.401 259.039 218.154 259.039 219.18V225H257.727ZM254.992 223.75C255.659 223.75 256.193 223.565 256.594 223.195C257 222.82 257.203 222.297 257.203 221.625V220.875L256.094 220.922C255.229 220.953 254.599 221.099 254.203 221.359C253.812 221.615 253.617 222.008 253.617 222.539C253.617 222.924 253.732 223.224 253.961 223.438C254.19 223.646 254.534 223.75 254.992 223.75ZM264.516 225.156C263.438 225.156 262.596 224.766 261.992 223.984C261.388 223.203 261.086 222.107 261.086 220.695C261.086 219.279 261.391 218.177 262 217.391C262.615 216.599 263.464 216.203 264.547 216.203C265.682 216.203 266.547 216.622 267.141 217.461H267.234C267.146 216.841 267.102 216.352 267.102 215.992V212.844H268.945V225H267.508L267.188 223.867H267.102C266.513 224.727 265.651 225.156 264.516 225.156ZM265.008 223.672C265.763 223.672 266.312 223.461 266.656 223.039C267 222.612 267.177 221.922 267.188 220.969V220.711C267.188 219.622 267.01 218.849 266.656 218.391C266.302 217.932 265.747 217.703 264.992 217.703C264.346 217.703 263.849 217.966 263.5 218.492C263.151 219.013 262.977 219.758 262.977 220.727C262.977 221.685 263.146 222.417 263.484 222.922C263.823 223.422 264.331 223.672 265.008 223.672ZM283.484 217.031C283.484 218.224 283.094 219.138 282.312 219.773C281.531 220.409 280.419 220.727 278.977 220.727H277.789V225H275.922V213.578H279.211C280.638 213.578 281.706 213.87 282.414 214.453C283.128 215.036 283.484 215.896 283.484 217.031ZM277.789 219.156H278.781C279.74 219.156 280.443 218.99 280.891 218.656C281.339 218.323 281.562 217.802 281.562 217.094C281.562 216.438 281.362 215.948 280.961 215.625C280.56 215.302 279.935 215.141 279.086 215.141H277.789V219.156ZM293.172 225H291.328V219.688C291.328 219.021 291.193 218.523 290.922 218.195C290.656 217.867 290.232 217.703 289.648 217.703C288.878 217.703 288.31 217.935 287.945 218.398C287.586 218.857 287.406 219.628 287.406 220.711V225H285.57V212.844H287.406V215.93C287.406 216.424 287.375 216.953 287.312 217.516H287.43C287.68 217.099 288.026 216.776 288.469 216.547C288.917 216.318 289.438 216.203 290.031 216.203C292.125 216.203 293.172 217.258 293.172 219.367V225ZM303.391 220.664C303.391 222.076 303.029 223.177 302.305 223.969C301.581 224.76 300.573 225.156 299.281 225.156C298.474 225.156 297.76 224.974 297.141 224.609C296.521 224.245 296.044 223.721 295.711 223.039C295.378 222.357 295.211 221.565 295.211 220.664C295.211 219.263 295.57 218.169 296.289 217.383C297.008 216.596 298.021 216.203 299.328 216.203C300.578 216.203 301.568 216.607 302.297 217.414C303.026 218.216 303.391 219.299 303.391 220.664ZM297.102 220.664C297.102 222.659 297.839 223.656 299.312 223.656C300.771 223.656 301.5 222.659 301.5 220.664C301.5 218.69 300.766 217.703 299.297 217.703C298.526 217.703 297.966 217.958 297.617 218.469C297.273 218.979 297.102 219.711 297.102 220.664ZM308.727 223.672C309.174 223.672 309.622 223.602 310.07 223.461V224.844C309.867 224.932 309.604 225.005 309.281 225.062C308.964 225.125 308.633 225.156 308.289 225.156C306.549 225.156 305.68 224.24 305.68 222.406V217.75H304.5V216.938L305.766 216.266L306.391 214.438H307.523V216.359H309.984V217.75H307.523V222.375C307.523 222.818 307.633 223.146 307.852 223.359C308.076 223.568 308.367 223.672 308.727 223.672ZM319.469 220.664C319.469 222.076 319.107 223.177 318.383 223.969C317.659 224.76 316.651 225.156 315.359 225.156C314.552 225.156 313.839 224.974 313.219 224.609C312.599 224.245 312.122 223.721 311.789 223.039C311.456 222.357 311.289 221.565 311.289 220.664C311.289 219.263 311.648 218.169 312.367 217.383C313.086 216.596 314.099 216.203 315.406 216.203C316.656 216.203 317.646 216.607 318.375 217.414C319.104 218.216 319.469 219.299 319.469 220.664ZM313.18 220.664C313.18 222.659 313.917 223.656 315.391 223.656C316.849 223.656 317.578 222.659 317.578 220.664C317.578 218.69 316.844 217.703 315.375 217.703C314.604 217.703 314.044 217.958 313.695 218.469C313.352 218.979 313.18 219.711 313.18 220.664ZM330.078 217.75H327.969V225H326.125V217.75H324.703V216.891L326.125 216.328V215.766C326.125 214.745 326.365 213.99 326.844 213.5C327.323 213.005 328.055 212.758 329.039 212.758C329.685 212.758 330.32 212.865 330.945 213.078L330.461 214.469C330.008 214.323 329.576 214.25 329.164 214.25C328.747 214.25 328.443 214.38 328.25 214.641C328.062 214.896 327.969 215.281 327.969 215.797V216.359H330.078V217.75ZM339.219 220.664C339.219 222.076 338.857 223.177 338.133 223.969C337.409 224.76 336.401 225.156 335.109 225.156C334.302 225.156 333.589 224.974 332.969 224.609C332.349 224.245 331.872 223.721 331.539 223.039C331.206 222.357 331.039 221.565 331.039 220.664C331.039 219.263 331.398 218.169 332.117 217.383C332.836 216.596 333.849 216.203 335.156 216.203C336.406 216.203 337.396 216.607 338.125 217.414C338.854 218.216 339.219 219.299 339.219 220.664ZM332.93 220.664C332.93 222.659 333.667 223.656 335.141 223.656C336.599 223.656 337.328 222.659 337.328 220.664C337.328 218.69 336.594 217.703 335.125 217.703C334.354 217.703 333.794 217.958 333.445 218.469C333.102 218.979 332.93 219.711 332.93 220.664ZM345.719 216.203C346.089 216.203 346.393 216.229 346.633 216.281L346.453 217.992C346.193 217.93 345.922 217.898 345.641 217.898C344.906 217.898 344.31 218.138 343.852 218.617C343.398 219.096 343.172 219.719 343.172 220.484V225H341.336V216.359H342.773L343.016 217.883H343.109C343.396 217.367 343.768 216.958 344.227 216.656C344.69 216.354 345.188 216.203 345.719 216.203ZM216.617 247H214.766V235.578H221.211V237.156H216.617V240.727H220.922V242.312H216.617V247ZM228.492 247L228.125 245.797H228.062C227.646 246.323 227.227 246.682 226.805 246.875C226.383 247.062 225.841 247.156 225.18 247.156C224.331 247.156 223.667 246.927 223.188 246.469C222.714 246.01 222.477 245.362 222.477 244.523C222.477 243.633 222.807 242.961 223.469 242.508C224.13 242.055 225.138 241.807 226.492 241.766L227.984 241.719V241.258C227.984 240.706 227.854 240.294 227.594 240.023C227.339 239.747 226.94 239.609 226.398 239.609C225.956 239.609 225.531 239.674 225.125 239.805C224.719 239.935 224.328 240.089 223.953 240.266L223.359 238.953C223.828 238.708 224.341 238.523 224.898 238.398C225.456 238.268 225.982 238.203 226.477 238.203C227.576 238.203 228.404 238.443 228.961 238.922C229.523 239.401 229.805 240.154 229.805 241.18V247H228.492ZM225.758 245.75C226.424 245.75 226.958 245.565 227.359 245.195C227.766 244.82 227.969 244.297 227.969 243.625V242.875L226.859 242.922C225.995 242.953 225.365 243.099 224.969 243.359C224.578 243.615 224.383 244.008 224.383 244.539C224.383 244.924 224.497 245.224 224.727 245.438C224.956 245.646 225.299 245.75 225.758 245.75ZM235.852 247.156C234.544 247.156 233.549 246.776 232.867 246.016C232.19 245.25 231.852 244.154 231.852 242.727C231.852 241.273 232.206 240.156 232.914 239.375C233.628 238.594 234.656 238.203 236 238.203C236.911 238.203 237.732 238.372 238.461 238.711L237.906 240.188C237.13 239.885 236.49 239.734 235.984 239.734C234.49 239.734 233.742 240.727 233.742 242.711C233.742 243.68 233.927 244.409 234.297 244.898C234.672 245.383 235.219 245.625 235.938 245.625C236.755 245.625 237.529 245.422 238.258 245.016V246.617C237.93 246.81 237.578 246.948 237.203 247.031C236.833 247.115 236.383 247.156 235.852 247.156ZM242.125 247H240.289V238.359H242.125V247ZM240.18 236.07C240.18 235.742 240.268 235.49 240.445 235.312C240.628 235.135 240.885 235.047 241.219 235.047C241.542 235.047 241.792 235.135 241.969 235.312C242.151 235.49 242.242 235.742 242.242 236.07C242.242 236.383 242.151 236.63 241.969 236.812C241.792 236.99 241.542 237.078 241.219 237.078C240.885 237.078 240.628 236.99 240.445 236.812C240.268 236.63 240.18 236.383 240.18 236.07ZM250.164 247L249.797 245.797H249.734C249.318 246.323 248.898 246.682 248.477 246.875C248.055 247.062 247.513 247.156 246.852 247.156C246.003 247.156 245.339 246.927 244.859 246.469C244.385 246.01 244.148 245.362 244.148 244.523C244.148 243.633 244.479 242.961 245.141 242.508C245.802 242.055 246.81 241.807 248.164 241.766L249.656 241.719V241.258C249.656 240.706 249.526 240.294 249.266 240.023C249.01 239.747 248.612 239.609 248.07 239.609C247.628 239.609 247.203 239.674 246.797 239.805C246.391 239.935 246 240.089 245.625 240.266L245.031 238.953C245.5 238.708 246.013 238.523 246.57 238.398C247.128 238.268 247.654 238.203 248.148 238.203C249.247 238.203 250.076 238.443 250.633 238.922C251.195 239.401 251.477 240.154 251.477 241.18V247H250.164ZM247.43 245.75C248.096 245.75 248.63 245.565 249.031 245.195C249.438 244.82 249.641 244.297 249.641 243.625V242.875L248.531 242.922C247.667 242.953 247.036 243.099 246.641 243.359C246.25 243.615 246.055 244.008 246.055 244.539C246.055 244.924 246.169 245.224 246.398 245.438C246.628 245.646 246.971 245.75 247.43 245.75ZM255.875 247H254.039V234.844H255.875V247ZM264.727 240.891H266.023C266.893 240.891 267.523 240.729 267.914 240.406C268.305 240.083 268.5 239.604 268.5 238.969C268.5 238.323 268.289 237.859 267.867 237.578C267.445 237.297 266.81 237.156 265.961 237.156H264.727V240.891ZM264.727 242.438V247H262.859V235.578H266.086C267.56 235.578 268.651 235.854 269.359 236.406C270.068 236.958 270.422 237.792 270.422 238.906C270.422 240.328 269.682 241.341 268.203 241.945L271.43 247H269.305L266.57 242.438H264.727ZM276.672 247.156C275.328 247.156 274.276 246.766 273.516 245.984C272.76 245.198 272.383 244.117 272.383 242.742C272.383 241.331 272.734 240.221 273.438 239.414C274.141 238.607 275.107 238.203 276.336 238.203C277.477 238.203 278.378 238.549 279.039 239.242C279.701 239.935 280.031 240.888 280.031 242.102V243.094H274.273C274.299 243.932 274.526 244.578 274.953 245.031C275.38 245.479 275.982 245.703 276.758 245.703C277.268 245.703 277.742 245.656 278.18 245.562C278.622 245.464 279.096 245.302 279.602 245.078V246.57C279.154 246.784 278.701 246.935 278.242 247.023C277.784 247.112 277.26 247.156 276.672 247.156ZM276.336 239.594C275.753 239.594 275.284 239.779 274.93 240.148C274.581 240.518 274.372 241.057 274.305 241.766H278.227C278.216 241.052 278.044 240.513 277.711 240.148C277.378 239.779 276.919 239.594 276.336 239.594ZM285.602 247.156C284.294 247.156 283.299 246.776 282.617 246.016C281.94 245.25 281.602 244.154 281.602 242.727C281.602 241.273 281.956 240.156 282.664 239.375C283.378 238.594 284.406 238.203 285.75 238.203C286.661 238.203 287.482 238.372 288.211 238.711L287.656 240.188C286.88 239.885 286.24 239.734 285.734 239.734C284.24 239.734 283.492 240.727 283.492 242.711C283.492 243.68 283.677 244.409 284.047 244.898C284.422 245.383 284.969 245.625 285.688 245.625C286.505 245.625 287.279 245.422 288.008 245.016V246.617C287.68 246.81 287.328 246.948 286.953 247.031C286.583 247.115 286.133 247.156 285.602 247.156ZM297.703 242.664C297.703 244.076 297.341 245.177 296.617 245.969C295.893 246.76 294.885 247.156 293.594 247.156C292.786 247.156 292.073 246.974 291.453 246.609C290.833 246.245 290.357 245.721 290.023 245.039C289.69 244.357 289.523 243.565 289.523 242.664C289.523 241.263 289.883 240.169 290.602 239.383C291.32 238.596 292.333 238.203 293.641 238.203C294.891 238.203 295.88 238.607 296.609 239.414C297.339 240.216 297.703 241.299 297.703 242.664ZM291.414 242.664C291.414 244.659 292.151 245.656 293.625 245.656C295.083 245.656 295.812 244.659 295.812 242.664C295.812 240.69 295.078 239.703 293.609 239.703C292.839 239.703 292.279 239.958 291.93 240.469C291.586 240.979 291.414 241.711 291.414 242.664ZM307.117 238.359V239.367L305.641 239.641C305.776 239.823 305.888 240.047 305.977 240.312C306.065 240.578 306.109 240.859 306.109 241.156C306.109 242.047 305.802 242.747 305.188 243.258C304.573 243.768 303.727 244.023 302.648 244.023C302.372 244.023 302.122 244.003 301.898 243.961C301.503 244.206 301.305 244.492 301.305 244.82C301.305 245.018 301.396 245.167 301.578 245.266C301.766 245.365 302.107 245.414 302.602 245.414H304.109C305.062 245.414 305.786 245.617 306.281 246.023C306.776 246.43 307.023 247.016 307.023 247.781C307.023 248.76 306.62 249.516 305.812 250.047C305.005 250.578 303.839 250.844 302.312 250.844C301.135 250.844 300.237 250.635 299.617 250.219C298.997 249.802 298.688 249.208 298.688 248.438C298.688 247.906 298.854 247.458 299.188 247.094C299.526 246.734 299.997 246.484 300.602 246.344C300.357 246.24 300.154 246.073 299.992 245.844C299.836 245.609 299.758 245.365 299.758 245.109C299.758 244.786 299.849 244.513 300.031 244.289C300.214 244.065 300.484 243.844 300.844 243.625C300.396 243.432 300.031 243.12 299.75 242.688C299.474 242.25 299.336 241.74 299.336 241.156C299.336 240.219 299.63 239.492 300.219 238.977C300.812 238.461 301.656 238.203 302.75 238.203C302.995 238.203 303.25 238.221 303.516 238.258C303.786 238.289 303.99 238.323 304.125 238.359H307.117ZM300.328 248.344C300.328 248.74 300.505 249.044 300.859 249.258C301.219 249.471 301.721 249.578 302.367 249.578C303.367 249.578 304.112 249.435 304.602 249.148C305.091 248.862 305.336 248.482 305.336 248.008C305.336 247.633 305.201 247.365 304.93 247.203C304.664 247.047 304.167 246.969 303.438 246.969H302.047C301.521 246.969 301.102 247.091 300.789 247.336C300.482 247.586 300.328 247.922 300.328 248.344ZM301.117 241.156C301.117 241.698 301.255 242.115 301.531 242.406C301.812 242.698 302.214 242.844 302.734 242.844C303.797 242.844 304.328 242.276 304.328 241.141C304.328 240.578 304.195 240.146 303.93 239.844C303.669 239.536 303.271 239.383 302.734 239.383C302.203 239.383 301.799 239.534 301.523 239.836C301.253 240.138 301.117 240.578 301.117 241.156ZM316.328 247H314.484V241.688C314.484 241.021 314.349 240.523 314.078 240.195C313.812 239.867 313.388 239.703 312.805 239.703C312.029 239.703 311.461 239.932 311.102 240.391C310.742 240.849 310.562 241.617 310.562 242.695V247H308.727V238.359H310.164L310.422 239.492H310.516C310.776 239.081 311.146 238.763 311.625 238.539C312.104 238.315 312.635 238.203 313.219 238.203C315.292 238.203 316.328 239.258 316.328 241.367V247ZM320.719 247H318.883V238.359H320.719V247ZM318.773 236.07C318.773 235.742 318.862 235.49 319.039 235.312C319.221 235.135 319.479 235.047 319.812 235.047C320.135 235.047 320.385 235.135 320.562 235.312C320.745 235.49 320.836 235.742 320.836 236.07C320.836 236.383 320.745 236.63 320.562 236.812C320.385 236.99 320.135 237.078 319.812 237.078C319.479 237.078 319.221 236.99 319.039 236.812C318.862 236.63 318.773 236.383 318.773 236.07ZM326.57 245.672C327.018 245.672 327.466 245.602 327.914 245.461V246.844C327.711 246.932 327.448 247.005 327.125 247.062C326.807 247.125 326.477 247.156 326.133 247.156C324.393 247.156 323.523 246.24 323.523 244.406V239.75H322.344V238.938L323.609 238.266L324.234 236.438H325.367V238.359H327.828V239.75H325.367V244.375C325.367 244.818 325.477 245.146 325.695 245.359C325.919 245.568 326.211 245.672 326.57 245.672ZM331.484 247H329.648V238.359H331.484V247ZM329.539 236.07C329.539 235.742 329.628 235.49 329.805 235.312C329.987 235.135 330.245 235.047 330.578 235.047C330.901 235.047 331.151 235.135 331.328 235.312C331.51 235.49 331.602 235.742 331.602 236.07C331.602 236.383 331.51 236.63 331.328 236.812C331.151 236.99 330.901 237.078 330.578 237.078C330.245 237.078 329.987 236.99 329.805 236.812C329.628 236.63 329.539 236.383 329.539 236.07ZM341.781 242.664C341.781 244.076 341.419 245.177 340.695 245.969C339.971 246.76 338.964 247.156 337.672 247.156C336.865 247.156 336.151 246.974 335.531 246.609C334.911 246.245 334.435 245.721 334.102 245.039C333.768 244.357 333.602 243.565 333.602 242.664C333.602 241.263 333.961 240.169 334.68 239.383C335.398 238.596 336.411 238.203 337.719 238.203C338.969 238.203 339.958 238.607 340.688 239.414C341.417 240.216 341.781 241.299 341.781 242.664ZM335.492 242.664C335.492 244.659 336.229 245.656 337.703 245.656C339.161 245.656 339.891 244.659 339.891 242.664C339.891 240.69 339.156 239.703 337.688 239.703C336.917 239.703 336.357 239.958 336.008 240.469C335.664 240.979 335.492 241.711 335.492 242.664ZM351.5 247H349.656V241.688C349.656 241.021 349.521 240.523 349.25 240.195C348.984 239.867 348.56 239.703 347.977 239.703C347.201 239.703 346.633 239.932 346.273 240.391C345.914 240.849 345.734 241.617 345.734 242.695V247H343.898V238.359H345.336L345.594 239.492H345.688C345.948 239.081 346.318 238.763 346.797 238.539C347.276 238.315 347.807 238.203 348.391 238.203C350.464 238.203 351.5 239.258 351.5 241.367V247Z" fill="white"/>
</svg>
